HIERARCHY
ROOT SpineBase
{
  OFFSET 0.000000 0.000000 0.000000
  CHANNELS 6 Xposition Yposition Zposition Zrotation Xrotation Yrotation
  JOINT SpineMid
  {
    OFFSET 0.000000 31.171463 0.000000
    CHANNELS 3 Zrotation Xrotation Yrotation
    JOINT SpineShoulder
    {
      OFFSET 0.272713 23.128766 -0.988311
      CHANNELS 3 Zrotation Xrotation Yrotation
      JOINT Neck
      {
        OFFSET 0.175943 7.669129 -0.654457
        CHANNELS 3 Zrotation Xrotation Yrotation
        JOINT Head
        {
          OFFSET 3.319576 10.873646 1.816599
          CHANNELS 3 Zrotation Xrotation Yrotation
          End Site
          {
            OFFSET 0 0 0
          }
        }
      }
      JOINT ShoulderLeft
      {
        OFFSET -12.579087 -2.168571 -10.989125
        CHANNELS 3 Zrotation Xrotation Yrotation
        JOINT ElbowLeft
        {
          OFFSET -5.186242 -25.561265 -4.590769
          CHANNELS 3 Zrotation Xrotation Yrotation
          JOINT WristLeft
          {
            OFFSET -0.447939 -24.534637 -6.337288
            CHANNELS 3 Zrotation Xrotation Yrotation
            JOINT HandLeft
            {
              OFFSET -1.466361 -7.564755 -0.659446
              CHANNELS 3 Zrotation Xrotation Yrotation
              JOINT HandTipLeft
              {
                OFFSET 0.277054 -6.225832 -0.840130
                CHANNELS 3 Zrotation Xrotation Yrotation
                End Site
                {
                  OFFSET 0 0 0
                }
              }
              JOINT ThumbLeft
              {
                OFFSET 3.450084 -0.451564 0.994803
                CHANNELS 3 Zrotation Xrotation Yrotation
                End Site
                {
                  OFFSET 0 0 0
                }
              }
            }
          }
        }
      }
      JOINT ShoulderRight
      {
        OFFSET 15.650723 -5.821350 9.307347
        CHANNELS 3 Zrotation Xrotation Yrotation
        JOINT ElbowRight
        {
          OFFSET 1.422098 -26.320127 2.081508
          CHANNELS 3 Zrotation Xrotation Yrotation
          JOINT WristRight
          {
            OFFSET 3.983352 -21.213299 -6.351077
            CHANNELS 3 Zrotation Xrotation Yrotation
            JOINT HandRight
            {
              OFFSET -0.560559 -7.834025 -2.870472
              CHANNELS 3 Zrotation Xrotation Yrotation
              JOINT HandTipRight
              {
                OFFSET 0.442392 -6.674876 -2.571111
                CHANNELS 3 Zrotation Xrotation Yrotation
                End Site
                {
                  OFFSET 0 0 0
                }
              }
              JOINT ThumbRight
              {
                OFFSET 2.784527 -0.479025 -3.385175
                CHANNELS 3 Zrotation Xrotation Yrotation
                End Site
                {
                  OFFSET 0 0 0
                }
              }
            }
          }
        }
      }
    }
  }
  JOINT HipLeft
  {
    OFFSET -5.271672 1.545540 -7.510546
    CHANNELS 3 Zrotation Xrotation Yrotation
    JOINT KneeLeft
    {
      OFFSET -11.105731 -31.074579 -4.511141
      CHANNELS 3 Zrotation Xrotation Yrotation
      JOINT AnkleLeft
      {
        OFFSET -10.609708 -40.640091 5.945480
        CHANNELS 3 Zrotation Xrotation Yrotation
        JOINT FootLeft
        {
          OFFSET -0.256545 -7.666996 -7.658592
          CHANNELS 3 Zrotation Xrotation Yrotation
          End Site
          {
            OFFSET 0 0 0
          }
        }
      }
    }
  }
  JOINT HipRight
  {
    OFFSET 6.914953 0.299502 -0.323905
    CHANNELS 3 Zrotation Xrotation Yrotation
    JOINT KneeRight
    {
      OFFSET -2.239807 -35.124596 2.701085
      CHANNELS 3 Zrotation Xrotation Yrotation
      JOINT AnkleRight
      {
        OFFSET -2.941666 -36.998589 5.817820
        CHANNELS 3 Zrotation Xrotation Yrotation
        JOINT FootRight
        {
          OFFSET 7.814691 -2.812279 -13.199939
          CHANNELS 3 Zrotation Xrotation Yrotation
          End Site
          {
            OFFSET 0 0 0
          }
        }
      }
    }
  }
}
MOTION
Frames: 13
Frame Time: 0.033333
-86.233837 81.392929 347.602394 10.005206 -2.988351 -27.847989 0.195335 0.383880 28.554258 -0.062504 -0.297994 0.502872 8.883367 -6.859348 -0.262285 0.000000 0.000000 0.000000 -1.404671 2.442647 -2.588102 5.367574 -0.443190 -2.156175 14.930491 4.030144 -0.581295 -10.205639 8.051228 -0.620226 0.000000 0.000000 0.000000 0.000000 0.000000 0.000000 18.585236 -2.535563 1.176679 88.365396 16.450328 -61.301376 8.487099 14.571729 -48.688862 15.200195 -6.515789 37.014855 0.000000 0.000000 0.000000 0.000000 0.000000 0.000000 -2.388337 4.172834 25.632735 -7.939032 -9.147178 4.198378 3.793055 -1.317563 -7.792715 0.000000 0.000000 0.000000 -2.862266 3.936240 28.408772 0.904868 -4.245252 1.605676 -27.706990 -24.442379 1.093802 0.000000 0.000000 0.000000
-87.103740 81.388206 347.215444 10.206100 -3.216014 -28.025657 0.189138 0.379684 28.767833 -0.080146 -0.287103 0.511954 9.125810 -6.501173 -0.471225 0.000000 0.000000 0.000000 -1.378140 1.749451 -2.408011 2.310389 -0.403843 -1.570614 13.326711 6.644319 -1.862562 -6.588652 3.535051 0.162795 0.000000 0.000000 0.000000 0.000000 0.000000 0.000000 19.417186 -2.079495 1.092334 98.405310 14.164796 -68.473295 5.128180 19.960704 -64.946158 11.532206 -6.905944 38.304728 0.000000 0.000000 0.000000 0.000000 0.000000 0.000000 -1.946719 4.847125 25.562565 -8.578667 -9.898878 4.580665 3.803129 -4.581979 -8.310842 0.000000 0.000000 0.000000 -1.952383 4.083444 28.696241 0.053953 -3.462035 1.429682 -29.273930 -26.197857 -0.683834 0.000000 0.000000 0.000000
-87.650963 81.391019 346.920781 10.410921 -3.477411 -28.454334 0.153134 0.365461 29.236213 -0.110562 -0.274219 0.519232 8.921456 -5.784233 -0.778909 0.000000 0.000000 0.000000 -1.867942 1.408298 -2.186918 0.112236 -0.599186 -1.049410 11.192139 9.125976 -2.687928 -2.650536 -0.128506 0.853236 0.000000 0.000000 0.000000 0.000000 0.000000 0.000000 20.101376 -1.520309 0.957061 103.265505 9.644019 -69.365791 2.546028 23.735924 -78.455053 13.428778 -10.129749 43.619788 0.000000 0.000000 0.000000 0.000000 0.000000 0.000000 -2.111013 5.784266 25.619863 -8.841128 -11.308098 5.099261 3.311977 -4.301667 -8.188374 0.000000 0.000000 0.000000 -1.045508 4.276029 29.233522 -1.307578 -2.475065 1.131543 -32.695232 -31.031488 -3.047270 0.000000 0.000000 0.000000
-88.348790 81.367675 346.583871 10.425067 -3.687640 -28.572716 0.078051 0.358113 29.373161 -0.160344 -0.245919 0.512684 9.341288 -5.535694 -0.920193 0.000000 0.000000 0.000000 -1.944309 0.644221 -1.896029 -2.473621 -0.249976 -0.511707 11.558291 10.018231 -3.285739 -0.156598 -1.265528 1.001348 0.000000 0.000000 0.000000 0.000000 0.000000 0.000000 18.729409 -0.022576 0.527032 102.243384 -1.852327 -54.396859 2.839598 31.982643 -97.910298 20.315908 -7.825691 54.835229 0.000000 0.000000 0.000000 0.000000 0.000000 0.000000 -2.089788 7.518506 24.997828 -9.273969 -13.562503 5.918423 1.485542 -4.856875 -6.574996 0.000000 0.000000 0.000000 0.096017 4.555792 29.440683 -2.564285 -1.587396 0.887686 -28.926226 -26.503064 -2.362797 0.000000 0.000000 0.000000
-89.069469 81.262435 346.195632 10.266921 -3.870751 -28.620752 0.065678 0.365260 29.426556 -0.174800 -0.250557 0.506941 8.986676 -5.009793 -1.045759 0.000000 0.000000 0.000000 -2.187456 -0.115941 -1.545971 -3.756183 0.624509 -0.314098 10.989459 9.040746 -2.967182 0.690077 -0.222665 0.658508 0.000000 0.000000 0.000000 0.000000 0.000000 0.000000 17.044945 0.249801 0.356745 98.533109 -18.821008 -31.980175 14.818012 37.965035 -121.651826 15.464517 -12.786745 51.397994 0.000000 0.000000 0.000000 0.000000 0.000000 0.000000 -1.450948 8.987255 24.429851 -9.978942 -15.275386 6.595458 -1.248855 -7.407473 -3.815347 0.000000 0.000000 0.000000 1.359364 4.824111 29.560512 -3.647113 -0.755005 0.689577 -24.212076 -20.194732 -1.071605 0.000000 0.000000 0.000000
-89.698161 81.074014 345.812843 10.049902 -4.056282 -28.986293 0.064944 0.384831 29.792465 -0.188961 -0.251109 0.498917 7.988802 -4.205884 -1.173577 0.000000 0.000000 0.000000 -2.480598 -0.787148 -1.204157 -4.044662 1.918212 -0.379921 10.294353 8.914016 -2.893435 1.145043 -2.324640 0.945239 0.000000 0.000000 0.000000 0.000000 0.000000 0.000000 15.461477 0.684770 0.179404 96.241334 -29.155775 -17.541392 41.209927 38.393304 -170.298791 28.357774 -5.293242 76.840814 0.000000 0.000000 0.000000 0.000000 0.000000 0.000000 -0.516250 9.906980 24.428978 -10.872797 -16.038104 6.951551 0.644252 -0.594098 -6.176153 0.000000 0.000000 0.000000 2.409736 5.275135 29.947914 -4.512828 -0.384322 0.589106 -22.001587 -16.853407 -0.097736 0.000000 0.000000 0.000000
-90.299621 80.888483 345.455881 9.873491 -4.255890 -29.319548 0.042888 0.419226 30.127618 -0.207390 -0.243147 0.490992 6.997916 -3.569696 -1.210717 0.000000 0.000000 0.000000 -3.097312 -1.264892 -0.859842 -4.114252 2.993945 -0.421708 11.016845 8.410684 -2.991799 0.888499 -2.317278 0.947214 0.000000 0.000000 0.000000 0.000000 0.000000 0.000000 13.199307 1.065757 0.010089 93.904337 -34.362232 -10.066509 64.521516 -14.072823 17.008243 -44.968318 46.187152 -74.244635 0.000000 0.000000 0.000000 0.000000 0.000000 0.000000 0.572829 10.377878 24.596712 -11.951607 -15.962927 7.011063 2.511686 3.417500 -8.283009 0.000000 0.000000 0.000000 3.361804 5.785985 30.281813 -5.314254 -0.272197 0.541007 -22.199113 -16.844901 0.774984 0.000000 0.000000 0.000000
-90.811301 80.724297 345.119762 9.536885 -4.328420 -29.463246 0.085940 0.398429 30.255770 -0.221720 -0.274479 0.481035 6.331329 -3.079308 -1.199412 0.000000 0.000000 0.000000 -3.858171 -1.316008 -0.570041 -2.829894 3.734611 -0.798796 9.515789 8.935114 -2.897550 1.046270 -3.715514 1.326555 0.000000 0.000000 0.000000 0.000000 0.000000 0.000000 11.702141 1.538305 -0.122090 88.265273 -36.133570 -7.454479 43.560348 -12.681366 -94.036152 -26.129077 -20.575324 23.988294 0.000000 0.000000 0.000000 0.000000 0.000000 0.000000 1.990206 10.375112 24.772902 -13.163623 -15.202604 6.809117 4.132873 4.670721 -9.885547 0.000000 0.000000 0.000000 4.367234 6.218639 30.399769 -5.958142 -0.422955 0.548242 -20.251142 -13.270590 1.273412 0.000000 0.000000 0.000000
-91.167855 80.622993 344.877222 9.034246 -4.295360 -29.498087 0.148528 0.390507 30.251788 -0.175269 -0.334912 0.469239 6.273082 -3.114099 -1.058518 0.000000 0.000000 0.000000 -4.725313 -0.953767 -0.356332 -1.840613 3.798256 -0.944715 9.993717 10.471878 -3.520850 -0.738204 -4.411007 1.884511 0.000000 0.000000 0.000000 0.000000 0.000000 0.000000 9.618666 2.144012 -0.247892 84.964955 -33.611181 -9.349147 48.919089 -8.875718 -129.765673 8.076380 -18.110234 93.731910 0.000000 0.000000 0.000000 0.000000 0.000000 0.000000 3.543373 9.908568 25.066048 -14.199125 -13.766496 6.403414 6.322468 5.221120 -12.035730 0.000000 0.000000 0.000000 5.287248 6.621802 30.374187 -6.332933 -0.763231 0.598762 -19.756683 -11.921020 0.929235 0.000000 0.000000 0.000000
-91.423632 80.527731 344.695835 8.750111 -4.394249 -29.626500 0.142053 0.350744 30.369123 -0.209025 -0.346875 0.456090 5.642912 -2.805617 -0.956126 0.000000 0.000000 0.000000 -5.487650 -0.794133 -0.108049 -0.703845 4.004119 -1.209411 8.657596 12.366179 -3.832920 -1.959425 -4.352499 2.373507 0.000000 0.000000 0.000000 0.000000 0.000000 0.000000 8.094101 2.570781 -0.332843 86.935753 -30.021189 -12.386229 51.272827 -11.115364 -129.129379 10.420283 -10.865896 112.164361 0.000000 0.000000 0.000000 0.000000 0.000000 0.000000 4.382928 10.028718 25.186907 -14.865470 -13.203560 6.278826 4.877926 1.518212 -10.301154 0.000000 0.000000 0.000000 5.808455 7.075287 30.440961 -6.566022 -1.104396 0.656636 -22.215639 -15.241649 1.102156 0.000000 0.000000 0.000000
-91.512283 80.480514 344.612958 8.562272 -4.560416 -29.718435 0.069728 0.291582 30.461369 -0.256136 -0.353787 0.443778 5.070904 -2.454698 -0.870286 0.000000 0.000000 0.000000 -6.027207 -0.436024 0.057317 -0.031808 3.982105 -1.305140 7.762229 13.936857 -4.115714 -2.034094 -4.253015 2.753849 0.000000 0.000000 0.000000 0.000000 0.000000 0.000000 7.179786 2.743199 -0.378683 84.369612 -24.724322 -16.696182 57.751017 -14.361342 -123.040907 9.513632 -8.687390 121.251242 0.000000 0.000000 0.000000 0.000000 0.000000 0.000000 4.825463 9.717501 25.527796 -15.040479 -12.282322 6.044156 6.295460 3.478642 -11.788610 0.000000 0.000000 0.000000 5.960179 7.501201 30.468721 -6.580700 -1.430499 0.717496 -23.562134 -16.932742 1.167519 0.000000 0.000000 0.000000
-91.403219 80.501157 344.680652 8.470901 -4.809341 -29.777767 -0.045594 0.231867 30.533810 -0.308809 -0.347997 0.433619 4.449368 -1.988357 -0.817495 0.000000 0.000000 0.000000 -6.302720 0.156453 0.115798 0.141806 3.499580 -1.217791 7.477054 15.364546 -4.449898 -1.726270 -3.909160 3.045541 0.000000 0.000000 0.000000 0.000000 0.000000 0.000000 7.032842 2.735379 -0.404040 78.619857 -17.232230 -21.513922 68.633495 -17.951266 -113.415085 6.866337 -13.417235 117.429957 0.000000 0.000000 0.000000 0.000000 0.000000 0.000000 4.768541 9.265973 25.947395 -14.780404 -11.311014 5.758295 9.403502 5.936914 -15.214078 0.000000 0.000000 0.000000 5.703253 7.931188 30.461432 -6.427976 -1.737189 0.768553 -22.334977 -14.858781 1.013995 0.000000 0.000000 0.000000
-91.124929 80.559761 344.881233 8.496896 -5.140235 -29.760248 -0.169430 0.179230 30.545667 -0.352288 -0.332760 0.429408 3.832421 -1.508967 -0.775584 0.000000 0.000000 0.000000 -6.531946 0.720983 0.158582 -0.329519 3.169143 -0.961419 8.551795 16.401317 -5.017702 -2.834686 -3.978853 3.231254 0.000000 0.000000 0.000000 0.000000 0.000000 0.000000 7.869055 2.339684 -0.399244 71.321761 -6.931524 -26.726707 83.705745 -20.324513 -101.673115 5.820274 -26.408682 116.197326 0.000000 0.000000 0.000000 0.000000 0.000000 0.000000 3.891930 9.543487 25.940176 -14.017498 -11.582663 5.793407 12.297540 11.006935 -18.456249 0.000000 0.000000 0.000000 5.080941 8.332413 30.388163 -6.102418 -1.940254 0.803703 -23.275811 -16.417134 0.484731 0.000000 0.000000 0.000000
